<?xml version="1.0" standalone="yes"?>
<svg xmlns="http://www.w3.org/2000/svg" width="1551" height="517">
<path style="fill:#ffffff; stroke:none;" d="M0 0L0 517L1551 517L1551 0L0 0z"/>
<path style="fill:#010101; stroke:none;" d="M837 339C836.882 333.674 839.78 328.728 842.08 324C845.828 316.298 849.566 308.59 853.537 301C868.27 272.839 882.373 244.487 898.4 217C904.131 207.171 909.321 197.026 914.691 187C916.434 183.745 919.323 178.856 916.393 175.434C913.574 172.143 909.298 173.724 906 175.182C898.032 178.706 891.704 183.965 885 189.382C874.37 197.973 862.841 205.446 852.17 213.989C834.422 228.198 817.183 243.225 799 256.861C774.264 275.412 752.006 297.3 728.089 316.87C719.709 323.727 711.052 334.215 701 338.49C692.33 342.177 680.252 340.456 671 341.09C646.699 342.754 622.261 343.859 598 346.17C554.273 350.334 510.496 355.033 467 361.3C449.983 363.752 433.002 366.671 416 369.296C407.99 370.533 400.142 372.65 392 373C393.866 372.283 395.021 371.97 397 372C402.745 354.345 410.407 337.536 416.333 320C418.666 313.094 422.247 301.855 430 299.176C436.572 296.905 443.525 311.566 446.139 316C455.473 331.834 469.759 346.674 489 348.827C496.92 349.713 505.255 349.449 513 347.525C518.953 346.046 524.95 343.014 531 342.214C540.034 341.018 549.781 342.711 559 341.83C578.948 339.924 599.599 336.232 619 331.269C629.977 328.46 641.338 326.276 651.995 322.367C655.273 321.164 660.291 317.42 657.302 313.434C655.645 311.223 652.5 311.034 650 311.316C643.403 312.06 636.467 314.302 630 315.87C613.736 319.815 597.479 323.185 581 326.084C571.387 327.775 561.811 329.973 552 330C558.326 324.526 565.073 319.854 570.073 313C578.324 301.689 583.269 282.89 568.999 273.995C566.285 272.303 563.108 271.337 560 270.669C540.827 266.549 519.11 273.626 504 285.518C494.114 293.298 487.648 304.328 491.44 317C494.354 326.737 501.652 330.054 508 337C493.501 337.299 481.648 337.17 470.004 326.816C459.553 317.522 454.948 304.255 445.816 294.004C440.576 288.123 433.892 283.962 426 287.367C419.739 290.069 416.126 295.867 411 300C410.677 298.217 410.412 296.62 409.543 294.991C402.825 282.394 388.775 291.33 382.325 299.001C367.091 317.116 360.166 340.526 343.91 358C340.089 362.108 330.93 372.956 324.228 371.184C321.511 370.465 321.235 367.31 321.508 364.999C322.117 359.854 324.409 354.547 326.785 350C334.818 334.627 345.513 319.554 355 305C357.87 300.596 364.697 292.488 359.562 287.449C357.281 285.21 354.384 286.016 351.576 285.343C338.009 282.094 324.829 290.42 314 298.141C290.327 315.019 267.104 334.8 257.09 363C252.92 374.742 252.987 391.113 269 391.895C271.717 392.028 274.387 391.549 277 390.841C289.713 387.398 300.571 376.685 310 368C310.371 370.742 310.814 373.469 312.05 375.985C318.84 389.807 335.802 381.019 344 373.816C354.768 364.354 363.788 352.556 370.688 340C378.449 325.876 385.309 309.429 399 300C404.731 315.724 396.036 335.903 391 351C388.608 358.169 382.253 367.36 388 374C374.28 377.38 359.934 378.958 346 381.285C324.611 384.859 303.32 389.329 282 393.31C233.338 402.397 185.232 414.637 137 425.765C117.944 430.161 98.435 434.259 78.9105 435.296C72.8704 435.617 60.9598 436.367 58.6937 428.981C56.8002 422.81 63.0036 413.152 65.8611 408C75.569 390.497 88.5435 373.831 101.924 359C121.818 336.95 141.43 314.681 163.09 294.285C198.897 260.566 237.263 229.749 278 202.164C297.481 188.973 317.053 175.071 338 164.258C342.294 162.042 347.959 160.302 351.566 157.034C353.657 155.139 354.345 151.813 351.678 150.029C345.974 146.212 333.94 154.834 329 157.59C308.045 169.28 287.747 181.631 268 195.283C219.09 229.097 173.623 266.523 131.985 309.001C115.433 325.887 98.3013 343.01 84.1397 362C72.5808 377.5 60.1039 392.325 51.8735 410C48.4813 417.285 45.1041 427.162 48.6528 434.999C54.8544 448.695 76.9758 446.193 89 444.715C127.626 439.969 164.97 428.533 203 420.801C234.714 414.353 266.186 406.839 298 400.804C388.747 383.59 480.09 368.618 572 359.83C610.101 356.187 648.692 351.025 687 351C647.73 388.476 602.732 420.589 566.17 461C557.476 470.609 546.255 479.5 538.789 490C536.528 493.18 532.827 499.957 537.433 502.957C543.069 506.628 549.82 493.197 553.001 490C567.516 475.408 580.776 459.853 595.986 445.95C621.485 422.641 646.732 399.042 673 376.579C679.629 370.911 686.375 365.405 693 359.729C696.938 356.356 700.982 352.176 706 350.474C713.401 347.964 721.391 349.554 729 348.83C740.817 347.706 753.129 347.005 765 347C772.794 346.997 781.288 347.953 789 346.787C794.045 346.024 799.057 343.403 804 342C790.286 333.381 771.2 337.368 756 337.96C743.454 338.449 730.474 336.704 718 339C776.346 288.034 836.051 237.253 899 192C890.65 212.051 878.094 231.18 867.284 250C855.783 270.022 845.474 291.16 835.537 312C830.728 322.085 825.165 332.109 822.378 343C821.359 346.984 819.876 352.209 822.603 355.852C829.702 365.334 842.39 348.61 847 344C868.031 322.969 890.122 303.205 912 283.086C977.322 223.014 1047.21 167.7 1120 117.039C1142.67 101.258 1165.92 86.2525 1189 71.0787C1201.26 63.0206 1215.98 56.3263 1223 43C1219.75 43 1216.16 42.6051 1213 43.51C1205.44 45.6785 1198.77 51.8701 1192 55.6913C1168.47 68.98 1146.68 85.6208 1124 100.309C1048.96 148.909 979.365 207.101 913 266.831C896.515 281.668 880.46 296.963 864.004 311.834C855.139 319.845 843.108 328.715 837 339M1026.01 204.747C1017.59 206.717 1017.16 220.85 1027 218.547C1035.42 216.575 1035.75 202.471 1026.01 204.747M943 323C954.604 298.471 978.218 279.782 997 261C1001.89 256.108 1006.95 251.408 1011.89 246.576C1013.87 244.637 1016.14 242.076 1015.29 239.059C1013.98 234.431 1008.46 234.885 1005 236.367C997.26 239.679 990.971 246.789 985.576 253C978.985 260.587 970.902 266.557 964.17 274C956.782 282.167 950.964 291.901 942.911 299.424C936.227 305.668 929.667 312.033 923.73 319C921.169 322.005 918.247 325.002 917.399 328.999C916.546 333.02 918.943 338.265 923.791 335.777C926.363 334.457 927.7 331.408 929 329C938.692 338.161 949.096 334.495 960 329.029C980.511 318.748 998.838 300.982 1016 286C1013.99 293.355 1011.23 301.285 1013.65 309C1017.93 322.643 1033.67 322.736 1044 316.521C1058.59 307.741 1064.4 291.437 1075 279C1074.45 285.968 1072.86 293.175 1071.33 300C1070.64 303.117 1068.86 306.714 1069.53 309.956C1070.44 314.401 1076.13 316.22 1079.61 313.396C1082.17 311.316 1082.68 308.056 1083 305C1101.1 317.458 1125.47 309.228 1143 299C1146.59 305.702 1156.63 308.356 1164 307.522C1170.36 306.801 1175.41 303.763 1181 300.969C1188.99 296.979 1197.56 292.875 1206 290C1206.88 306.097 1224.64 303.557 1236 303C1249.72 302.327 1265.01 296.658 1274.83 286.826C1280.27 281.373 1281.01 273.908 1285.56 268.326C1290.81 261.901 1301.48 257.133 1309 254C1307.37 257.653 1305.97 261.38 1304.26 265C1300.99 271.905 1300.18 284.746 1312 281.347C1318.58 279.455 1324.24 273.618 1330 270.065C1338.09 265.074 1346.89 261.586 1356 259C1361.96 271.524 1375.31 277.995 1388 281.883C1414.78 290.087 1441.87 285.818 1469 282.282C1476.73 281.274 1484.37 279.866 1492 278.285C1499.38 276.757 1505.42 276.347 1509 269C1498.8 262.959 1488.13 267.638 1477 268.834C1453.21 271.391 1428.93 276.415 1405 272.562C1395.03 270.957 1384.08 267.728 1376 261.471C1369.86 256.718 1366.34 247.433 1358 246.218C1346.37 244.521 1330.1 253.523 1321 260C1321.49 257.356 1322.06 254.707 1321.89 252C1320.67 232.561 1297.9 244.198 1289 249.445C1286.68 250.816 1284.52 252.046 1282 253C1278.1 241.524 1262.92 237.432 1252 240.803C1246.92 242.372 1244.07 246.393 1239.91 249.316C1236.71 251.561 1233.07 252.824 1230 255.329C1218.91 264.383 1210.68 273.693 1197 279C1202.17 267.32 1199.51 256.893 1193.74 246C1190.81 240.474 1185.76 234.983 1179.01 238.319C1174.64 240.483 1172.32 245.243 1169.52 249C1164.53 255.708 1159.24 262.104 1154.49 269C1142.4 286.57 1119.44 302.152 1097 298C1100.14 294.891 1103.23 291.811 1107 289.468C1114.9 284.562 1125.5 281.369 1127.52 271C1131.18 252.153 1106.31 234.467 1091 247C1092.46 235.472 1095.95 223.596 1096.31 212C1096.45 207.7 1093.1 202.792 1088.21 204.762C1085.26 205.953 1084.5 209.193 1084.01 212.001C1083.03 217.686 1081.67 223.278 1080.87 229C1079.64 237.81 1078.14 246.806 1074.49 255C1069.35 266.525 1060.97 276.523 1054.08 287C1049.53 293.92 1045.33 301.15 1038 305.518C1035.52 306.995 1032 308.806 1029.06 307.671C1021.02 304.569 1026.86 291.992 1029.26 287C1036.45 272.062 1046.12 262.478 1058 251.039C1061.41 247.758 1067.96 242.662 1063.4 237.434C1060.47 234.082 1056.09 235.685 1053 237.804C1045.61 242.876 1040.47 250.49 1033 255.72C1002.31 277.214 978.772 309.2 943 323z"/>
<path style="fill:#ffffff; stroke:none;" d="M1182 253C1173.09 266.467 1161.92 278.51 1153 292C1159.49 291.946 1169.39 291.839 1174.99 288.258C1186.32 281.008 1190.71 263.551 1182 253M1272 262C1271.27 259.562 1270.54 257.237 1268.61 255.432C1264.86 251.93 1256.96 252.028 1253.13 255.318C1250.47 257.609 1249.37 261.075 1247.6 264C1245.74 267.057 1241.9 272.757 1245.03 276.353C1247.33 279.002 1251.91 275.635 1254 274.301C1256.38 272.782 1258.65 271.085 1261 269.515C1264.7 267.045 1268.38 264.591 1272 262M1089 287C1092.71 284.469 1096.06 281.504 1100 279.312C1104.4 276.868 1111.45 274.518 1113.96 269.816C1117.06 263.993 1107.35 252.087 1101.09 255.708C1092.19 260.864 1090.75 277.983 1089 287M1219 290C1225.89 291.279 1232.1 290.057 1239 290C1235.48 285.786 1232.8 282.267 1231 277C1224.13 279.345 1219.42 282.266 1219 290M545 281.425C530.801 283.335 512.49 288.888 504.613 302.004C495.85 316.599 515.219 330.743 529 328.761C533.373 328.132 537.393 325.015 541 322.656C549.589 317.039 558.91 310.424 563.622 301C570.934 286.375 558.33 279.632 545 281.425M1016 285L1017 286L1016 285M348 293C337.157 294.087 326.548 301.309 318 307.629C302.197 319.313 285.827 331.861 275.604 349C271.676 355.586 268.105 362.551 266.156 370C265.411 372.848 264.203 376.983 266.604 379.397C268.957 381.761 273.24 380.874 276 379.867C282.875 377.358 289.661 371.797 295 366.914C303.473 359.163 311.367 351.49 317.961 342C323.867 333.498 328.336 323.825 333.808 315C338.277 307.793 344.963 300.854 348 293z"/>
</svg>
